<?xml version="1.0" encoding="utf-8"?>
<!-- Generator: Adobe Illustrator 16.0.0, SVG Export Plug-In . SVG Version: 6.00 Build 0)  -->
<!DOCTYPE svg PUBLIC "-//W3C//DTD SVG 1.1//EN" "http://www.w3.org/Graphics/SVG/1.1/DTD/svg11.dtd">
<svg version="1.1" id="Layer_1" xmlns="http://www.w3.org/2000/svg" xmlns:xlink="http://www.w3.org/1999/xlink" x="0px" y="0px"
	 width="370.69px" height="82.339px" viewBox="0 0 370.69 82.339" enable-background="new 0 0 370.69 82.339" xml:space="preserve">
<g>
	<g>
		<path fill="#00A1DF" d="M5.046,47.531v18.88c0,0.724-0.217,1.082-1.011,1.082H1.01C0.29,67.493,0,67.135,0,66.411V19.573
			c0-0.721,0.29-1.082,0.937-1.082h14.267c11.964,0,15.639,4.756,15.639,10.522v8.07c0,4.467-2.234,8.359-8.936,9.801l9.368,19.526
			c0.289,0.65-0.215,1.082-1.008,1.082H27.24c-0.794,0-0.937-0.432-1.298-1.082l-8.934-18.88h-1.804H5.046z M5.046,22.889v20.322
			h10.158c7.712,0,10.521-2.74,10.521-6.992v-6.413c0-4.18-2.81-6.917-10.521-6.917H5.046z"/>
		<path fill="#00A1DF" d="M66.721,49.479c0,0.65-0.287,1.007-1.01,1.007H45.319v8.002c0,3.313,1.729,5.548,8.357,5.548
			c6.631,0,8.361-2.235,8.361-5.548v-1.227c0-0.721,0.286-1.009,1.008-1.009h2.593c0.722,0,1.082,0.288,1.082,1.009v1.514
			c0,5.549-3.244,9.296-13.188,9.296c-9.873,0-13.115-3.747-13.115-9.296v-18.16c0-5.548,3.314-9.294,13.258-9.294
			c9.874,0,13.045,3.746,13.045,9.294V49.479z M45.319,46.67h16.718v-5.767c0-3.244-2.019-5.548-8.361-5.548
			c-6.485,0-8.357,2.304-8.357,5.548V46.67z"/>
		<path fill="#00A1DF" d="M81.415,32.976l0.144,2.74c2.018-1.659,6.125-4.396,12.321-4.396c6.848,0,9.945,3.746,9.945,9.223v18.302
			c0,5.479-3.098,9.226-9.945,9.226c-6.052,0-10.159-2.596-12.248-4.181v17.44c0,0.721-0.289,1.009-1.01,1.009h-2.882
			c-0.794,0-1.081-0.288-1.081-1.009V32.976c0-0.72,0.286-1.081,1.081-1.081h2.594C81.125,31.895,81.342,32.256,81.415,32.976z
			 M98.853,41.263c0-2.954-1.658-5.404-6.342-5.404c-5.404,0-9.223,2.811-10.879,4.108v19.527c1.657,1.227,5.476,4.036,10.879,4.036
			c4.685,0,6.342-2.449,6.342-5.404V41.263z"/>
		<path fill="#00A1DF" d="M113.617,40.614c0-5.548,3.675-9.294,13.548-9.294s13.62,3.746,13.62,9.294v18.16
			c0,5.549-3.748,9.296-13.62,9.296s-13.548-3.747-13.548-9.296V40.614z M135.812,40.977c0-3.39-2.232-5.55-8.646-5.55
			c-6.341,0-8.575,2.16-8.575,5.55v17.438c0,3.385,2.234,5.549,8.575,5.549c6.415,0,8.646-2.164,8.646-5.549V40.977z"/>
		<path fill="#00A1DF" d="M169.241,32.399v2.379c0,0.72-0.432,1.08-1.152,1.08c-5.407,0.216-10.019,3.388-11.746,4.83v25.723
			c0,0.724-0.289,1.082-1.011,1.082h-2.883c-0.792,0-1.082-0.358-1.082-1.082V32.976c0-0.72,0.291-1.081,1.082-1.081h2.596
			c0.792,0,1.009,0.361,1.082,1.081l0.216,3.532c2.017-1.874,6.412-5.188,11.746-5.188C168.81,31.32,169.241,31.68,169.241,32.399z"
			/>
		<path fill="#5E0D8B" d="M202.886,18.491c0.719,0,1.083,0.289,1.083,1.082v2.234c0,0.791-0.364,1.081-1.083,1.081h-12.395v43.522
			c0,0.724-0.289,1.082-1.01,1.082h-3.097c-0.792,0-1.08-0.358-1.08-1.082V22.889h-12.396c-0.792,0-1.079-0.29-1.079-1.081v-2.234
			c0-0.793,0.287-1.082,1.079-1.082H202.886z"/>
		<path fill="#5E0D8B" d="M205.618,40.471c0-5.404,3.245-9.15,12.973-9.15c9.871,0,12.97,3.746,12.97,9.15v25.94
			c0,0.724-0.286,1.082-1.008,1.082h-2.595c-0.795,0-1.011-0.358-1.08-1.082l-0.146-2.594c-2.09,1.657-6.123,4.253-11.887,4.253
			c-6.703,0-9.947-3.818-9.947-8.502v-3.604c0-4.683,3.1-8.505,9.366-8.505h12.399v-6.483c0-3.244-1.731-5.55-8.145-5.55
			s-8.216,2.16-8.216,5.403v0.866c0,0.792-0.287,1.152-1.082,1.152h-2.592c-0.721,0-1.011-0.36-1.011-1.152V40.471z M226.663,59.854
			v-8.43h-11.462c-3.889,0-5.475,2.018-5.475,5.189v2.303c0,3.173,1.947,4.974,6.269,4.974
			C221.184,63.89,225.004,61.151,226.663,59.854z"/>
		<path fill="#5E0D8B" d="M269.241,66.411c0.433,0.506,0.217,1.082-0.504,1.082h-3.243c-0.794,0-1.227-0.432-1.729-1.082
			l-13.834-17.004h-2.453v17.004c0,0.724-0.289,1.082-1.008,1.082h-2.958c-0.72,0-1.006-0.358-1.006-1.082V18.202
			c0-0.719,0.286-1.078,1.006-1.078h2.958c0.719,0,1.008,0.359,1.008,1.078v27.384h2.379l12.25-12.61
			c0.506-0.576,1.08-1.081,1.729-1.081h3.242c0.796,0,1.011,0.505,0.504,1.081l-13.617,14.342L269.241,66.411z"/>
	</g>
	<g>
		<path fill="#00A1DF" d="M337.66,42.835l-18.319-18.032l-12.046,29.298l-24.729-11.922v17.818c0,5.514,4.47,9.979,9.981,9.979
			h50.014c5.512,0,9.982-4.466,9.982-9.979v-33.69L337.66,42.835z"/>
		<path fill="#00A1DF" d="M305.339,48.998l12.654-30.781l19.502,19.199l15.048-16.713V9.981c0-5.513-4.471-9.981-9.982-9.981
			h-50.014c-5.512,0-9.981,4.469-9.981,9.981v28.036L305.339,48.998z"/>
	</g>
	<path fill="#5E0D8B" d="M312.037,52.332c0,2.728-2.209,4.939-4.938,4.939c-2.729,0-4.94-2.212-4.94-4.939
		c0-2.729,2.211-4.943,4.94-4.943C309.828,47.389,312.037,49.604,312.037,52.332"/>
	<path fill="#5E0D8B" d="M324.388,22.688c0,2.729-2.211,4.941-4.938,4.941c-2.729,0-4.94-2.212-4.94-4.941
		c0-2.728,2.212-4.939,4.94-4.939C322.177,17.749,324.388,19.961,324.388,22.688"/>
	<path fill="#5E0D8B" d="M342.518,39.197c0,2.729-2.213,4.941-4.938,4.941c-2.73,0-4.94-2.212-4.94-4.941
		c0-2.729,2.21-4.939,4.94-4.939C340.305,34.258,342.518,36.469,342.518,39.197"/>
	<path fill="#5E0D8B" d="M370.69,10.344c0,2.73-2.212,4.943-4.941,4.943c-2.728,0-4.939-2.213-4.939-4.943
		c0-2.726,2.212-4.938,4.939-4.938C368.479,5.405,370.69,7.618,370.69,10.344"/>
</g>
</svg>
